<svg xmlns="http://www.w3.org/2000/svg" xmlns:xlink="http://www.w3.org/1999/xlink" id="Layer_1" x="0px" y="0px" viewBox="0 0 300 300" style="enable-background:new 0 0 300 300;" xml:space="preserve"><style type="text/css">	.st0{fill:#0677ED;}	.st1{fill:url(#SVGID_1_);}	.st2{fill:url(#SVGID_00000080887504869147410860000010868396328873734842_);}	.st3{fill:url(#SVGID_00000138533628645113310830000008977388562456354449_);}</style><g>	<g>		<g>			<path class="st0" d="M178.9,203.8h-58.3c-50.2,0-91,40.7-91,91l0,0h140.7c52.1,0,94.8-40,99.1-91H178.9L178.9,203.8z"></path>			<path class="st0" d="M178.9,95.7c50.2,0,91-40.7,91-91v0H129.2c-52.1,0-94.8,40-99.1,91h90.6H178.9z"></path>			<path class="st0" d="M269.9,195.2L269.9,195.2c0-50.2-40.7-91-91-91h-58.3v0h-91v0c0,50.2,40.7,91,91,91h58.3L269.9,195.2    C269.9,195.2,269.9,195.2,269.9,195.2z"></path>		</g>		<g>			<linearGradient id="SVGID_1_" gradientUnits="userSpaceOnUse" x1="56.9324" y1="310.513" x2="242.5663" y2="-11.0142">				<stop offset="9.401869e-02" style="stop-color:#0773E5"></stop>				<stop offset="0.9415" style="stop-color:#04DC78"></stop>			</linearGradient>			<path class="st1" d="M178.9,203.8h-58.3c-50.2,0-91,40.7-91,91l0,0h140.7c52.1,0,94.8-40,99.1-91H178.9L178.9,203.8z"></path>							<linearGradient id="SVGID_00000112634845577743449530000001876749760083885212_" gradientUnits="userSpaceOnUse" x1="56.9324" y1="310.513" x2="242.5663" y2="-11.0142">				<stop offset="9.401869e-02" style="stop-color:#0773E5"></stop>				<stop offset="0.9415" style="stop-color:#04DC78"></stop>			</linearGradient>			<path style="fill:url(#SVGID_00000112634845577743449530000001876749760083885212_);" d="M178.9,95.7c50.2,0,91-40.7,91-91v0    H129.2c-52.1,0-94.8,40-99.1,91h90.6H178.9z"></path>							<linearGradient id="SVGID_00000057105930586318580720000017628210430640939172_" gradientUnits="userSpaceOnUse" x1="56.9324" y1="310.513" x2="242.5663" y2="-11.0142">				<stop offset="9.401869e-02" style="stop-color:#0773E5"></stop>				<stop offset="0.9415" style="stop-color:#04DC78"></stop>			</linearGradient>			<path style="fill:url(#SVGID_00000057105930586318580720000017628210430640939172_);" d="M269.9,195.2L269.9,195.2    c0-50.2-40.7-91-91-91h-58.3v0h-91v0c0,50.2,40.7,91,91,91h58.3L269.9,195.2C269.9,195.2,269.9,195.2,269.9,195.2z"></path>		</g>	</g></g></svg>